<svg xmlns="http://www.w3.org/2000/svg" width="1920" height="1080" viewBox="0 0 1920 1080">
  <defs>
    <linearGradient id="bg" x1="0%" y1="0%" x2="100%" y2="100%">
      <stop offset="0%" style="stop-color:#0a0a1a"/>
      <stop offset="50%" style="stop-color:#0d1a2a"/>
      <stop offset="100%" style="stop-color:#050510"/>
    </linearGradient>
    <radialGradient id="glow1" cx="70%" cy="30%" r="40%">
      <stop offset="0%" style="stop-color:#00e5ff;stop-opacity:0.15"/>
      <stop offset="100%" style="stop-color:#00e5ff;stop-opacity:0"/>
    </radialGradient>
    <radialGradient id="glow2" cx="20%" cy="70%" r="30%">
      <stop offset="0%" style="stop-color:#ff0080;stop-opacity:0.1"/>
      <stop offset="100%" style="stop-color:#ff0080;stop-opacity:0"/>
    </radialGradient>
  </defs>
  <rect width="1920" height="1080" fill="url(#bg)"/>
  <rect width="1920" height="1080" fill="url(#glow1)"/>
  <rect width="1920" height="1080" fill="url(#glow2)"/>
  <!-- Grid -->
  <g stroke="#00e5ff" stroke-opacity="0.06" stroke-width="1">
    <line x1="0" y1="0" x2="0" y2="1080"/><line x1="80" y1="0" x2="80" y2="1080"/>
    <line x1="160" y1="0" x2="160" y2="1080"/><line x1="240" y1="0" x2="240" y2="1080"/>
    <line x1="320" y1="0" x2="320" y2="1080"/><line x1="400" y1="0" x2="400" y2="1080"/>
    <line x1="480" y1="0" x2="480" y2="1080"/><line x1="560" y1="0" x2="560" y2="1080"/>
    <line x1="640" y1="0" x2="640" y2="1080"/><line x1="720" y1="0" x2="720" y2="1080"/>
    <line x1="800" y1="0" x2="800" y2="1080"/><line x1="880" y1="0" x2="880" y2="1080"/>
    <line x1="960" y1="0" x2="960" y2="1080"/><line x1="1040" y1="0" x2="1040" y2="1080"/>
    <line x1="1120" y1="0" x2="1120" y2="1080"/><line x1="1200" y1="0" x2="1200" y2="1080"/>
    <line x1="1280" y1="0" x2="1280" y2="1080"/><line x1="1360" y1="0" x2="1360" y2="1080"/>
    <line x1="1440" y1="0" x2="1440" y2="1080"/><line x1="1520" y1="0" x2="1520" y2="1080"/>
    <line x1="1600" y1="0" x2="1600" y2="1080"/><line x1="1680" y1="0" x2="1680" y2="1080"/>
    <line x1="1760" y1="0" x2="1760" y2="1080"/><line x1="1840" y1="0" x2="1840" y2="1080"/>
    <line x1="0" y1="80" x2="1920" y2="80"/><line x1="0" y1="160" x2="1920" y2="160"/>
    <line x1="0" y1="240" x2="1920" y2="240"/><line x1="0" y1="320" x2="1920" y2="320"/>
    <line x1="0" y1="400" x2="1920" y2="400"/><line x1="0" y1="480" x2="1920" y2="480"/>
    <line x1="0" y1="560" x2="1920" y2="560"/><line x1="0" y1="640" x2="1920" y2="640"/>
    <line x1="0" y1="720" x2="1920" y2="720"/><line x1="0" y1="800" x2="1920" y2="800"/>
    <line x1="0" y1="880" x2="1920" y2="880"/><line x1="0" y1="960" x2="1920" y2="960"/>
  </g>
  <!-- Neon city silhouette -->
  <g fill="#0a1628" opacity="0.8">
    <rect x="100" y="500" width="120" height="580"/><rect x="250" y="400" width="100" height="680"/>
    <rect x="380" y="550" width="80" height="530"/><rect x="500" y="350" width="140" height="730"/>
    <rect x="680" y="450" width="90" height="630"/><rect x="800" y="300" width="160" height="780"/>
    <rect x="1000" y="420" width="110" height="660"/><rect x="1150" y="380" width="130" height="700"/>
    <rect x="1320" y="500" width="100" height="580"/><rect x="1460" y="350" width="150" height="730"/>
    <rect x="1650" y="450" width="120" height="630"/><rect x="1810" y="520" width="110" height="560"/>
  </g>
  <!-- Neon windows -->
  <g fill="#00e5ff" opacity="0.15">
    <rect x="520" y="360" width="8" height="6"/><rect x="540" y="360" width="8" height="6"/>
    <rect x="520" y="380" width="8" height="6"/><rect x="820" y="310" width="8" height="6"/>
    <rect x="840" y="310" width="8" height="6"/><rect x="820" y="330" width="8" height="6"/>
    <rect x="1480" y="360" width="8" height="6"/><rect x="1500" y="360" width="8" height="6"/>
  </g>
  <g fill="#ff0080" opacity="0.12">
    <rect x="270" y="410" width="6" height="5"/><rect x="285" y="410" width="6" height="5"/>
    <rect x="1170" y="390" width="6" height="5"/><rect x="1185" y="390" width="6" height="5"/>
  </g>
</svg>